<svg width="20" height="13" viewBox="0 0 20 13" fill="none" xmlns="http://www.w3.org/2000/svg">
<path d="M17.9442 3.23983C17.9569 3.38201 17.9569 3.52422 17.9569 3.6664C17.9569 8.0031 13.8326 13 6.29444 13C3.97209 13 1.81473 12.4617 0 11.5274C0.329962 11.5578 0.64719 11.568 0.989848 11.568C2.90607 11.568 4.67006 11.05 6.0787 10.1664C4.27666 10.1359 2.7665 9.19141 2.24618 7.8914C2.50001 7.92185 2.7538 7.94217 3.02032 7.94217C3.38833 7.94217 3.75638 7.90153 4.099 7.83047C2.22083 7.52576 0.812152 6.20546 0.812152 4.61093V4.57032C1.35782 4.81407 1.99239 4.96641 2.66493 4.9867C1.56087 4.39763 0.837542 3.39217 0.837542 2.25466C0.837542 1.6453 1.04055 1.08671 1.3959 0.599204C3.41369 2.58983 6.4467 3.88981 9.8477 4.03202C9.78426 3.78827 9.74617 3.53438 9.74617 3.28047C9.74617 1.47264 11.5736 0 13.8452 0C15.0254 0 16.0914 0.396093 16.8401 1.03594C17.7665 0.893756 18.6548 0.619524 19.4416 0.243752C19.137 1.00549 18.4898 1.64533 17.6396 2.05155C18.4645 1.98049 19.264 1.79764 20 1.54376C19.4417 2.19373 18.7437 2.77262 17.9442 3.23983Z" fill="white"/>
</svg>
