<svg width="85" height="81" viewBox="0 0 85 81" fill="none" xmlns="http://www.w3.org/2000/svg">
<path d="M42.2991 0C18.9323 0 0 18.127 0 40.5C0 62.873 18.9323 81 42.2991 81C65.666 81 84.5983 62.873 84.5983 40.5C84.5983 18.127 65.666 0 42.2991 0ZM42.2991 15.6774C50.5884 15.6774 57.3085 22.1117 57.3085 30.0484C57.3085 37.9851 50.5884 44.4194 42.2991 44.4194C34.0099 44.4194 27.2898 37.9851 27.2898 30.0484C27.2898 22.1117 34.0099 15.6774 42.2991 15.6774ZM42.2991 71.8548C32.2872 71.8548 23.3157 67.5109 17.3119 60.7173C20.5185 54.9363 26.7951 50.9516 34.1122 50.9516C34.5216 50.9516 34.9309 51.0169 35.3232 51.1312C37.5405 51.8171 39.8601 52.2581 42.2991 52.2581C44.7382 52.2581 47.0749 51.8171 49.2751 51.1312C49.6674 51.0169 50.0767 50.9516 50.4861 50.9516C57.8031 50.9516 64.0798 54.9363 67.2863 60.7173C61.2826 67.5109 52.3111 71.8548 42.2991 71.8548Z" fill="#8317D9"/>
</svg>
