<svg width="17" height="15" viewBox="0 0 17 15" fill="none" xmlns="http://www.w3.org/2000/svg">
<path d="M8.5019 3.65419C6.08985 3.65419 4.14428 5.37125 4.14428 7.5C4.14428 9.62875 6.08985 11.3458 8.5019 11.3458C10.9139 11.3458 12.8595 9.62875 12.8595 7.5C12.8595 5.37125 10.9139 3.65419 8.5019 3.65419ZM8.5019 10.0003C6.94317 10.0003 5.66888 8.879 5.66888 7.5C5.66888 6.121 6.93938 4.99972 8.5019 4.99972C10.0644 4.99972 11.3349 6.121 11.3349 7.5C11.3349 8.879 10.0606 10.0003 8.5019 10.0003ZM14.0542 3.49688C14.0542 3.99559 13.5991 4.3939 13.0378 4.3939C12.4727 4.3939 12.0214 3.99225 12.0214 3.49688C12.0214 3.00151 12.4765 2.59985 13.0378 2.59985C13.5991 2.59985 14.0542 3.00151 14.0542 3.49688ZM16.9403 4.40729C16.8758 3.20568 16.5648 2.1413 15.5674 1.26436C14.5737 0.387426 13.3677 0.112964 12.0062 0.0527167C10.603 -0.0175722 6.39704 -0.0175722 4.99381 0.0527167C3.63609 0.109617 2.43006 0.384079 1.43263 1.26102C0.435193 2.13796 0.127998 3.20233 0.0597323 4.40394C-0.0199108 5.64236 -0.0199108 9.35429 0.0597323 10.5927C0.124205 11.7943 0.435193 12.8587 1.43263 13.7356C2.43006 14.6126 3.63229 14.887 4.99381 14.9473C6.39704 15.0176 10.603 15.0176 12.0062 14.9473C13.3677 14.8904 14.5737 14.6159 15.5674 13.7356C16.561 12.8587 16.872 11.7943 16.9403 10.5927C17.0199 9.35429 17.0199 5.64571 16.9403 4.40729ZM15.1274 11.9215C14.8316 12.5775 14.259 13.083 13.5118 13.3474C12.393 13.739 9.73826 13.6486 8.5019 13.6486C7.26553 13.6486 4.60697 13.7356 3.49197 13.3474C2.74863 13.0863 2.17596 12.5809 1.87635 11.9215C1.43263 10.9341 1.53503 8.59115 1.53503 7.5C1.53503 6.40885 1.43642 4.06253 1.87635 3.07849C2.17217 2.42246 2.74484 1.91705 3.49197 1.65263C4.61076 1.26102 7.26553 1.35139 8.5019 1.35139C9.73826 1.35139 12.3968 1.26436 13.5118 1.65263C14.2552 1.9137 14.8278 2.41911 15.1274 3.07849C15.5712 4.06588 15.4688 6.40885 15.4688 7.5C15.4688 8.59115 15.5712 10.9375 15.1274 11.9215Z" fill="white"/>
</svg>
