<svg width="50" height="24" viewBox="0 0 50 24" fill="none" xmlns="http://www.w3.org/2000/svg">
<path fill-rule="evenodd" clip-rule="evenodd" d="M25.0218 0C11.1161 0 0 5.21681 0 11.7377C0 18.2064 11.2032 23.4753 25.0218 23.4753C38.7969 23.4753 50 18.2064 50 11.7377C50 5.26894 38.7969 0 25.0218 0ZM0.174376 11.8421C0.174376 10.4858 0.653947 9.12925 1.6565 7.82505C5.23098 3.3387 14.6468 0.260805 24.9781 0.20868C38.666 0.156554 49.8254 5.26894 49.869 11.6334C49.869 12.9897 49.3459 14.3461 48.3432 15.5981C44.7251 20.1368 35.3964 23.2145 25.0652 23.2668C11.3777 23.3189 0.218081 18.2065 0.174376 11.8421Z" fill="#59595B"/>
</svg>
