<svg width="72" height="33" viewBox="0 0 72 33" fill="none" xmlns="http://www.w3.org/2000/svg">
<path d="M19.4262 14.5454H11.9142V16.5886H17.2422C16.9782 19.4486 14.3784 20.6762 11.9232 20.6762C11.1454 20.6793 10.3748 20.5404 9.65617 20.2675C8.93759 19.9946 8.28552 19.5932 7.73802 19.0868C7.19052 18.5804 6.75856 17.979 6.46737 17.3179C6.17618 16.6568 6.03159 15.9491 6.04204 15.2362C6.04204 12.143 8.65444 9.76146 11.9304 9.76146C14.4576 9.76146 15.9468 11.2382 15.9468 11.2382L17.5068 9.75651C17.5068 9.75651 15.5028 7.71216 11.8488 7.71216C7.19584 7.71216 3.59644 11.3119 3.59644 15.1999C3.59644 19.0097 6.98224 22.725 11.9664 22.725C16.3506 22.725 19.56 19.9717 19.56 15.9006C19.56 15.0415 19.4238 14.5454 19.4238 14.5454H19.4262Z" fill="#4885ED"/>
<path d="M25.5805 13.0652C22.4977 13.0652 20.2885 15.2746 20.2885 17.8502C20.2885 20.4649 22.4305 22.715 25.6165 22.715C28.5001 22.715 30.8623 20.6948 30.8623 17.9063C30.8623 14.7163 28.1143 13.0647 25.5805 13.0647V13.0652ZM25.6105 14.9605C27.1261 14.9605 28.5625 16.0842 28.5625 17.8942C28.5625 19.6652 27.1321 20.8213 25.6033 20.8213C23.9233 20.8213 22.6033 19.5882 22.6033 17.8799C22.6033 16.2079 23.9113 14.9605 25.6153 14.9605H25.6105Z" fill="#DB3236"/>
<path d="M37.089 13.0652C34.0062 13.0652 31.797 15.2746 31.797 17.8502C31.797 20.4649 33.939 22.715 37.125 22.715C40.0086 22.715 42.3708 20.6948 42.3708 17.9063C42.3708 14.7163 39.6228 13.0647 37.089 13.0647V13.0652ZM37.119 14.9605C38.6346 14.9605 40.071 16.0842 40.071 17.8942C40.071 19.6652 38.6406 20.8213 37.1118 20.8213C35.4318 20.8213 34.1118 19.5882 34.1118 17.8799C34.1118 16.2079 35.4198 14.9605 37.1238 14.9605H37.119Z" fill="#F4C20D"/>
<path d="M48.3768 13.0708C45.5472 13.0708 43.3236 15.3423 43.3236 17.8921C43.3236 20.7961 45.9018 22.7222 48.3276 22.7222C49.8276 22.7222 50.6256 22.1761 51.2076 21.5496V22.5011C51.2076 24.166 50.1048 25.1631 48.4404 25.1631C46.8324 25.1631 46.026 24.067 45.7404 23.4455L43.7172 24.2155C44.4348 25.607 45.8796 27.0573 48.4572 27.0573C51.2772 27.0573 53.4144 25.4332 53.4144 22.0265V13.3607H51.216V14.178C50.538 13.507 49.6092 13.0708 48.378 13.0708H48.3768ZM48.5808 14.9628C49.968 14.9628 51.3924 16.0485 51.3924 17.9026C51.3924 19.7874 49.9704 20.8258 48.5502 20.8258C47.0418 20.8258 45.6384 19.7038 45.6384 17.9202C45.6384 16.0678 47.0964 14.9628 48.5808 14.9628Z" fill="#4885ED"/>
<path d="M63.24 13.0592C60.5712 13.0592 58.3302 15.0062 58.3302 17.8772C58.3302 20.9165 60.828 22.7189 63.4902 22.7189C65.7174 22.7189 67.0902 21.6024 67.9002 20.6014L66.0804 19.4915C65.6082 20.1625 64.8186 20.8197 63.5016 20.8197C62.022 20.8197 61.3416 20.0772 60.9198 19.3567L67.9776 16.6727L67.6176 15.8862C66.936 14.3462 65.3448 13.0592 63.24 13.0592ZM63.3318 14.9149C64.2936 14.9149 64.9854 15.3835 65.2794 15.9456L60.5658 17.7513C60.3618 16.3532 61.8078 14.9149 63.3258 14.9149H63.3318Z" fill="#DB3236"/>
<path d="M54.96 22.4329H57.2784V8.21155H54.96V22.4329Z" fill="#3CBA54"/>
</svg>
