<svg width="7" height="5" viewBox="0 0 7 5" fill="none" xmlns="http://www.w3.org/2000/svg">
<path fill-rule="evenodd" clip-rule="evenodd" d="M6.90227 1.13896C6.70629 1.25623 6.46173 1.43203 6.16792 1.60764C5.77629 1.7247 5.58064 1.84197 5.23792 1.78344C4.79738 1.78344 4.40575 1.60764 4.16086 1.08043C4.01396 0.787559 3.91613 0.37742 3.91613 0.0260152C3.91613 0.0260152 3.86705 -0.0325191 3.81814 0.0260152C3.08396 1.3735 2.39852 2.66205 1.71325 4.00953C1.66434 4.06807 1.61543 4.1268 1.56635 4.1268H0.0978239C0.0489117 4.1268 0.0489122 4.1268 0 4.06807C0.0489122 4.3026 0.0978236 4.65381 0.146902 4.71254C0.146902 4.77108 0.195814 4.82961 0.244726 4.82961H1.86016C1.90924 4.82961 1.95815 4.77108 2.00706 4.71254C2.69233 3.48213 3.3776 2.13504 4.06304 0.904627C4.20977 1.5489 4.25885 1.84197 4.55249 2.13504C4.84613 2.42791 5.09086 2.48645 5.48249 2.48645C5.8252 2.48645 6.16775 2.31065 6.55938 2.13504C6.70629 2.07631 6.85319 1.95924 6.95101 1.90051C6.95101 1.66617 6.95101 1.43183 6.99993 1.1977C7.00009 1.1977 7.00009 1.0219 6.90227 1.13896Z" fill="#000C3E"/>
</svg>
