<svg width="36" height="23" viewBox="0 0 36 23" fill="none" xmlns="http://www.w3.org/2000/svg">
<path d="M21.0025 6.32636C20.6561 7.31825 20.243 8.26428 19.9356 9.2819C19.8423 9.68615 19.6895 10.1736 19.8854 10.5662C20.0903 10.8128 20.3773 10.7655 20.6253 10.7196C21.5703 10.5232 22.4857 10.1219 23.3803 9.6604C24.2709 9.19734 25.0992 8.48775 25.7858 7.56752C26.1957 7.03731 26.4304 6.28049 26.494 5.51205C26.5155 4.602 26.1323 3.7748 25.6248 3.24459C24.85 2.39746 23.9409 1.7738 22.9919 1.42262C22.2314 2.97497 21.6462 4.67639 21.0025 6.32636ZM16.1147 0.776311C14.6255 1.08004 13.1435 1.5317 11.7271 2.25111C10.739 2.76727 9.77356 3.6703 9.34413 5.06785C9.1084 5.7573 9.17603 6.5901 9.44255 7.24228C9.63115 7.78697 10.0288 8.22988 10.4808 8.1595C10.9604 8.052 11.3817 7.67502 11.8101 7.37545C12.5101 6.79937 13.2552 6.34341 13.9747 5.81736C16.2931 4.22072 18.6288 2.65547 21.0538 1.39252C21.2977 1.26939 21.559 1.18325 21.7671 0.954051C19.8997 0.551271 17.9954 0.592838 16.1147 0.776311ZM14.5558 0.481035C16.1444 0.0194874 17.776 -0.0478821 19.3935 0.0250769C20.7135 0.157091 22.0459 0.25456 23.3342 0.713243C24.725 1.20632 26.0645 2.08484 27.153 3.40499C27.5301 3.84804 27.8571 4.38972 28.0385 5.03631C28.4075 6.24164 28.1892 7.6852 27.6122 8.68849C27.1817 9.42814 26.658 10.0746 26.0635 10.5434C24.9669 11.3503 23.779 11.8863 22.5686 12.2403C20.6539 12.8539 18.682 13.1362 16.7184 13.0603C16.823 12.5513 17.0545 12.1272 17.2471 11.68C17.7833 10.4343 18.3931 9.25473 18.9497 8.02763C20.078 5.72849 21.3694 3.60136 22.5788 1.38679C21.6011 2.32422 20.7955 3.5585 19.952 4.71094C19.2283 5.80174 18.4556 6.83363 17.7934 8.00054C16.8966 9.62736 15.9979 11.2543 15.141 12.9212C14.4112 12.841 13.6805 12.6703 12.9713 12.4195C13.4632 11.2858 14.1715 10.3856 14.8182 9.42814C15.3737 8.62965 15.966 7.88301 16.539 7.10898C17.8519 5.47765 19.2766 4.03582 20.7062 2.6139C21.1224 2.19679 21.5693 1.83257 21.9577 1.364C20.775 2.07911 19.6578 2.99217 18.5335 3.87083C17.03 5.03474 15.6514 6.48976 14.3425 8.0391C13.3209 9.18588 12.3687 10.4458 11.4298 11.7201C11.3048 11.9021 11.1183 11.7531 10.9748 11.7087C9.85146 11.154 8.83581 10.1377 8.13578 8.78453C7.65507 7.89576 7.62228 6.64313 7.91339 5.63403C8.40634 4.15751 9.35438 3.08247 10.366 2.33296C11.682 1.41273 13.1199 0.890839 14.5558 0.481035Z" fill="#DD3224"/>
<path d="M0 17.5324C0.0502446 17.038 0.19165 16.324 0.638528 16.3469C1.05154 16.3672 1.52095 16.2023 1.89405 16.5046C2.01599 16.8744 1.92788 17.3202 1.97396 17.7188C2.20456 17.3003 2.23739 16.6365 2.60432 16.3971C3.06652 16.2969 3.54823 16.3041 4.01049 16.4C4.4399 16.5491 4.56493 17.1969 4.68076 17.7101C4.82733 17.3891 4.92574 17.0323 5.05485 16.6983C5.20447 16.2868 5.59085 16.3584 5.86661 16.3399C6.24992 16.3873 6.71317 16.2496 7.01556 16.6668C7.33836 17.0636 7.34865 17.716 7.35273 18.272C7.33836 19.6552 7.36707 21.0386 7.33836 22.4216C7.33937 23.0568 6.77775 22.8303 6.4846 22.9005C6.21609 22.8604 5.75179 23.0423 5.66263 22.5478C5.57656 21.2407 5.6913 19.9175 5.61038 18.6103C5.51711 18.0341 4.97903 18.2392 4.66952 18.1661C4.65826 19.4934 4.67359 20.8205 4.66435 22.148C4.65718 22.3801 4.65927 22.6796 4.49732 22.8174C4.05144 22.998 3.57385 22.9591 3.1209 22.8502C2.99887 22.7155 2.94762 22.4976 2.95378 22.2854C2.93329 21.2163 2.98045 20.1441 2.93637 19.0761C2.90663 18.7882 2.922 18.4055 2.70984 18.2462C2.47312 18.1489 2.22097 18.1918 1.97804 18.1675C1.90529 19.5835 1.976 21.0054 1.94325 22.4232C1.93608 22.5909 1.93196 22.8588 1.75877 22.8375C1.29551 22.9034 0.828136 22.8832 0.366926 22.8029C0.226522 21.255 0.338181 19.6825 0.321846 18.1258C0.323888 17.8463 0.116863 17.7131 0 17.5324Z" fill="#68696D"/>
<path d="M12.2692 17.5539C12.4065 17.1441 12.4619 16.4976 12.8462 16.4129C13.3045 16.3226 13.7768 16.3284 14.2288 16.4717C14.3231 17.3518 14.283 18.2462 14.2985 19.1336C14.4401 18.8297 14.5209 18.4311 14.7536 18.2361C15.1246 18.1001 15.5171 18.1573 15.8964 18.176C16.2889 18.1905 16.5441 18.7536 16.5267 19.2639C16.5195 20.455 16.5533 21.6492 16.5 22.8388C16.0439 22.8832 15.5858 22.8946 15.1297 22.833C15.0855 21.844 15.1657 20.8492 15.0867 19.8661C15.057 19.4332 14.6276 19.4031 14.4154 19.5979C14.276 19.8187 14.279 20.1312 14.2708 20.4092C14.2607 21.2177 14.2975 22.0274 14.2473 22.833C13.7564 22.9405 13.2499 23.0007 12.7601 22.8445C12.5961 22.7011 12.6465 22.3773 12.6269 22.1494C12.6432 20.8536 12.6792 19.5579 12.6525 18.2621C12.6852 17.9065 12.43 17.7459 12.2692 17.5539Z" fill="#68696D"/>
<path d="M17.3785 16.4602C17.8406 16.3213 18.3173 16.3484 18.7835 16.443C18.8461 16.8501 18.8357 17.2686 18.7733 17.6757C18.3009 17.7719 17.8201 17.7588 17.3476 17.6671C17.2809 17.2658 17.3005 16.8544 17.3785 16.4602Z" fill="#68696D"/>
<path d="M26.2377 19.3787C26.0307 19.4862 25.7212 19.5077 25.6576 19.8689C25.5726 20.2861 25.5604 20.7847 25.7406 21.1576C25.9251 21.51 26.2736 21.3367 26.5389 21.3781C26.5422 20.3319 26.5513 19.2841 26.536 18.2377C26.4068 18.6018 26.332 18.996 26.2377 19.3787ZM26.1855 17.5497C26.2941 17.1211 26.3944 16.4774 26.784 16.4288C27.1795 16.3857 27.5834 16.3629 27.9749 16.4602C28.2987 16.6093 28.1902 17.1871 28.2158 17.5511C28.1687 19.3142 28.1902 21.0786 28.1769 22.8432C27.644 22.8502 27.1099 22.8703 26.577 22.8473C26.5482 22.4676 26.5389 22.0878 26.536 21.7065C26.4365 22.0217 26.3514 22.3499 26.2121 22.6352C26.0635 22.9378 25.7693 22.8459 25.5459 22.8861C25.1471 22.8746 24.6553 22.9808 24.3734 22.4876C23.9163 21.7637 24.1028 20.7232 24.0608 19.8458C24.0075 19.1881 24.2771 18.497 24.7372 18.2865C25.3358 18.027 25.9752 18.2435 26.5902 18.1374C26.4591 17.938 26.2941 17.7762 26.1855 17.5497Z" fill="#68696D"/>
<path d="M8.02502 19.357C8.1091 18.9186 8.19422 18.3022 8.54469 18.1516C9.39437 18.0657 10.2481 18.1661 11.0988 18.1675C11.4882 18.1302 11.8921 18.5602 11.8787 19.132C11.888 20.3418 11.8849 21.5573 11.8439 22.7642C11.4278 23.0052 10.9286 22.8445 10.4818 22.833C10.409 22.2367 10.4367 21.6306 10.4387 21.0298C10.2645 20.9223 10.079 20.8077 9.88423 20.8793C9.68238 20.8966 9.56552 21.2837 9.6905 21.5044C9.91094 21.6664 10.1692 21.6492 10.409 21.7137C10.3188 22.1292 10.1466 22.5078 9.92831 22.8131C9.45482 22.8932 8.9444 23.0109 8.48523 22.7773C7.74317 22.1106 7.93899 20.0924 8.85012 19.8702C9.35741 19.8057 9.86986 19.8774 10.3783 19.81C10.3844 19.7154 10.3957 19.5262 10.4018 19.4332C9.60956 19.4002 8.81629 19.4375 8.02502 19.357Z" fill="#68696D"/>
<path d="M17.3867 18.1975C17.7792 18.1431 18.2004 18.0872 18.5795 18.2691C19.0285 18.606 18.8532 19.4145 18.885 19.9892C18.8317 20.9452 18.9998 21.9459 18.7856 22.8688C18.386 22.8588 17.9809 22.9263 17.5844 22.8303C17.4368 22.7484 17.5085 22.459 17.4768 22.287C17.4563 21.4786 17.5208 20.663 17.4461 19.8587C17.4245 19.5808 17.2122 19.4904 17.0719 19.35C17.1344 18.9559 17.1354 18.4641 17.3867 18.1975Z" fill="#68696D"/>
<path d="M19.5348 18.3252C19.6373 18.1043 19.8474 18.1833 20.0063 18.1546C20.3014 18.1718 20.6304 18.1001 20.8937 18.3266C21.1214 18.5302 21.1173 18.9457 21.1808 19.2725C21.3264 18.9344 21.4177 18.5187 21.6513 18.2763C22.0417 18.0799 22.4722 18.1774 22.8791 18.1905C23.2799 18.1732 23.4664 18.8009 23.4633 19.2769C23.4766 20.4638 23.4746 21.6504 23.4593 22.8375C23.0011 22.8588 22.5429 22.8574 22.0848 22.8418C22.0192 21.857 22.1032 20.865 22.0407 19.8817C21.9126 19.3529 21.4226 19.5206 21.1173 19.5049C21.0987 20.4321 21.1173 21.3596 21.1142 22.287C21.0835 22.4605 21.1532 22.7513 21.0044 22.8344C20.6457 22.8733 20.284 22.8559 19.9253 22.8473C19.7398 22.8962 19.7213 22.6038 19.7101 22.4246C19.672 21.5718 19.7418 20.713 19.6834 19.8616C19.6701 19.5864 19.4518 19.5018 19.3196 19.36C19.3657 19.0089 19.3831 18.6262 19.5348 18.3252Z" fill="#68696D"/>
<path d="M32.1586 19.4274C32.2191 18.9559 32.3011 18.2091 32.7408 18.2019C33.5453 18.1732 34.352 18.1774 35.1565 18.2003C35.5409 18.1874 35.8616 18.5416 36 19.0275V22.9993H34.6471C34.4596 22.3658 34.5498 21.6707 34.5118 21.0054C34.2597 20.9268 33.9481 20.8507 33.7575 21.166C33.6335 21.7881 34.2249 21.6076 34.4514 21.8742C34.4257 22.3272 34.1603 22.6855 33.9461 22.9993H32.749C31.8737 22.4734 31.9537 20.2846 32.8904 19.9548C33.4203 19.8487 33.9594 19.9506 34.4924 19.8702C34.4831 19.7699 34.4647 19.5679 34.4555 19.466C33.6899 19.469 32.9222 19.5278 32.1586 19.4274Z" fill="#68696D"/>
<path d="M28.5438 19.145C28.5817 18.8253 28.6236 18.4298 28.8441 18.2535C29.2028 18.1589 29.5789 18.1661 29.9377 18.2576C30.1918 18.3152 30.2738 18.702 30.3998 18.9616C30.5362 18.702 30.6264 18.3108 30.8836 18.2491C31.2629 18.1489 31.6503 18.2276 32.0305 18.275C31.926 18.6762 31.8604 19.1908 31.5724 19.4158C31.1747 19.5435 30.7617 19.4575 30.3579 19.4474C30.3199 20.3462 30.3169 21.2478 30.3229 22.148C30.3344 22.4446 30.2656 22.7284 30.1847 22.9993H29.8013C29.5164 22.975 29.2335 22.9276 28.9537 22.8588C28.8564 21.8341 28.9302 20.7992 28.882 19.7699C28.7632 19.5765 28.5037 19.4504 28.5438 19.145Z" fill="#68696D"/>
</svg>
