<svg width="605" height="117" viewBox="0 0 605 117" fill="none" xmlns="http://www.w3.org/2000/svg">
<path d="M3.5 28.46L69.9444 112.78L136.389 10.54L202.833 18.38L269.278 3.5L335.722 50.86L402.167 31.66L468.611 82.06L535.056 85.26L601.5 81.9" stroke="#C6B33C"/>
<path d="M3.5 31.46C5.15685 31.46 6.5 30.1168 6.5 28.46C6.5 26.8031 5.15685 25.46 3.5 25.46C1.84315 25.46 0.5 26.8031 0.5 28.46C0.5 30.1168 1.84315 31.46 3.5 31.46Z" fill="white" stroke="#C6B33C"/>
<path d="M69.9445 115.78C71.6013 115.78 72.9445 114.437 72.9445 112.78C72.9445 111.123 71.6013 109.78 69.9445 109.78C68.2876 109.78 66.9445 111.123 66.9445 112.78C66.9445 114.437 68.2876 115.78 69.9445 115.78Z" fill="white" stroke="#C6B33C"/>
<path d="M136.389 13.54C138.046 13.54 139.389 12.1969 139.389 10.54C139.389 8.88318 138.046 7.54004 136.389 7.54004C134.732 7.54004 133.389 8.88318 133.389 10.54C133.389 12.1969 134.732 13.54 136.389 13.54Z" fill="white" stroke="#C6B33C"/>
<path d="M202.833 21.3799C204.49 21.3799 205.833 20.0367 205.833 18.3799C205.833 16.723 204.49 15.3799 202.833 15.3799C201.176 15.3799 199.833 16.723 199.833 18.3799C199.833 20.0367 201.176 21.3799 202.833 21.3799Z" fill="white" stroke="#C6B33C"/>
<path d="M269.278 6.5C270.935 6.5 272.278 5.15685 272.278 3.5C272.278 1.84315 270.935 0.5 269.278 0.5C267.621 0.5 266.278 1.84315 266.278 3.5C266.278 5.15685 267.621 6.5 269.278 6.5Z" fill="white" stroke="#C6B33C"/>
<path d="M335.722 53.8601C337.379 53.8601 338.722 52.517 338.722 50.8601C338.722 49.2033 337.379 47.8601 335.722 47.8601C334.065 47.8601 332.722 49.2033 332.722 50.8601C332.722 52.517 334.065 53.8601 335.722 53.8601Z" fill="white" stroke="#C6B33C"/>
<path d="M402.167 34.6599C403.824 34.6599 405.167 33.3168 405.167 31.6599C405.167 30.0031 403.824 28.6599 402.167 28.6599C400.51 28.6599 399.167 30.0031 399.167 31.6599C399.167 33.3168 400.51 34.6599 402.167 34.6599Z" fill="white" stroke="#C6B33C"/>
<path d="M468.611 85.0601C470.268 85.0601 471.611 83.7169 471.611 82.0601C471.611 80.4032 470.268 79.0601 468.611 79.0601C466.954 79.0601 465.611 80.4032 465.611 82.0601C465.611 83.7169 466.954 85.0601 468.611 85.0601Z" fill="white" stroke="#C6B33C"/>
<path d="M535.056 88.26C536.712 88.26 538.056 86.9169 538.056 85.26C538.056 83.6032 536.712 82.26 535.056 82.26C533.399 82.26 532.056 83.6032 532.056 85.26C532.056 86.9169 533.399 88.26 535.056 88.26Z" fill="white" stroke="#C6B33C"/>
<path d="M601.5 84.8999C603.157 84.8999 604.5 83.5568 604.5 81.8999C604.5 80.243 603.157 78.8999 601.5 78.8999C599.843 78.8999 598.5 80.243 598.5 81.8999C598.5 83.5568 599.843 84.8999 601.5 84.8999Z" fill="white" stroke="#C6B33C"/>
</svg>
