<svg width="13" height="5" viewBox="0 0 13 5" fill="none" xmlns="http://www.w3.org/2000/svg">
<path fill-rule="evenodd" clip-rule="evenodd" d="M0.0183373 4.56022C-0.0259334 4.56022 0.0183383 4.6132 0.0626089 4.6132C0.239842 4.6132 0.417074 4.56022 0.594307 4.56022C1.21455 3.39359 1.92348 2.70431 2.94261 1.74995C3.03115 1.69697 3.11984 1.64399 3.07557 1.37873C5.20222 1.90889 6.79732 2.86325 9.49994 2.86325C10.3417 2.86325 11.4936 2.54519 12.0696 2.12099C12.7785 1.59083 13 1.21962 13 0.795417C13 0.689458 13 0.530338 12.9558 0.424198C12.9558 0.265079 12.9558 0.10614 12.9115 0V0.159119C12.9115 0.636297 12.6011 1.0605 11.8924 1.53767C11.0505 2.06783 10.2086 2.22695 9.27844 2.22695C7.10737 2.27993 5.06926 1.21962 2.98688 0.689277C2.98688 0.795237 2.98688 0.954356 2.94261 1.00752C1.7464 2.01521 0.72727 3.07553 0.0183373 4.56022Z" fill="#000C3E"/>
</svg>
