<svg width="353" height="104" viewBox="0 0 353 104" fill="none" xmlns="http://www.w3.org/2000/svg">
<path d="M80.3289 5.61818C80.3289 7.10821 79.737 8.53722 78.6834 9.59083C77.6298 10.6444 76.2008 11.2364 74.7107 11.2364C73.2207 11.2364 71.7917 10.6444 70.7381 9.59083C69.6845 8.53722 69.0926 7.10821 69.0926 5.61818C69.0926 4.12815 69.6845 2.69914 70.7381 1.64553C71.7917 0.591914 73.2207 0 74.7107 0C76.2008 0 77.6298 0.591914 78.6834 1.64553C79.737 2.69914 80.3289 4.12815 80.3289 5.61818Z" fill="#1AABB0"/>
<path d="M164.164 84.0901C164.164 85.0936 163.765 86.056 163.056 86.7657C162.346 87.4753 161.384 87.8739 160.38 87.8739C159.377 87.8739 158.414 87.4753 157.705 86.7657C156.995 86.056 156.596 85.0936 156.596 84.0901C156.596 83.0865 156.995 82.1241 157.705 81.4145C158.414 80.7048 159.377 80.3062 160.38 80.3062C161.384 80.3062 162.346 80.7048 163.056 81.4145C163.765 82.1241 164.164 83.0865 164.164 84.0901Z" fill="#1AABB0"/>
<path d="M98.1407 7.21963C98.1407 8.24573 97.7331 9.22981 97.0075 9.95537C96.282 10.6809 95.2979 11.0885 94.2718 11.0885C93.2457 11.0885 92.2616 10.6809 91.5361 9.95537C90.8105 9.22981 90.4029 8.24573 90.4029 7.21963C90.4029 6.19354 90.8105 5.20946 91.5361 4.4839C92.2616 3.75834 93.2457 3.35072 94.2718 3.35072C95.2979 3.35072 96.282 3.75834 97.0075 4.4839C97.7331 5.20946 98.1407 6.19354 98.1407 7.21963Z" fill="#1AABB0"/>
<path d="M293.143 93.5387C293.143 94.2212 293.008 94.897 292.747 95.5275C292.486 96.158 292.103 96.7309 291.62 97.2135C291.138 97.6961 290.565 98.0789 289.934 98.3401C289.304 98.6012 288.628 98.7357 287.946 98.7357C287.263 98.7357 286.587 98.6012 285.957 98.3401C285.326 98.0789 284.753 97.6961 284.271 97.2135C283.788 96.7309 283.405 96.158 283.144 95.5275C282.883 94.897 282.749 94.2212 282.749 93.5387C282.749 92.8562 282.883 92.1804 283.144 91.5499C283.405 90.9194 283.788 90.3465 284.271 89.8639C284.753 89.3813 285.326 88.9985 285.957 88.7373C286.587 88.4762 287.263 88.3417 287.946 88.3417C288.628 88.3417 289.304 88.4762 289.934 88.7373C290.565 88.9985 291.138 89.3813 291.62 89.8639C292.103 90.3465 292.486 90.9194 292.747 91.5499C293.008 92.1804 293.143 92.8562 293.143 93.5387Z" fill="#1AABB0"/>
<path d="M237.114 51.7404C237.114 52.9412 236.637 54.0929 235.788 54.942C234.939 55.7911 233.787 56.2681 232.586 56.2681C231.386 56.2681 230.234 55.7911 229.385 54.942C228.536 54.0929 228.059 52.9412 228.059 51.7404C228.059 50.5396 228.536 49.3879 229.385 48.5388C230.234 47.6897 231.386 47.2127 232.586 47.2127C233.787 47.2127 234.939 47.6897 235.788 48.5388C236.637 49.3879 237.114 50.5396 237.114 51.7404Z" fill="#1AABB0"/>
<path d="M8.91055 25.7966C8.91055 26.9782 8.44116 28.1114 7.60563 28.947C6.77011 29.7825 5.63689 30.2519 4.45528 30.2519C3.27366 30.2519 2.14045 29.7825 1.30492 28.947C0.469394 28.1114 0 26.9782 0 25.7966C0 24.615 0.469394 23.4818 1.30492 22.6462C2.14045 21.8107 3.27366 21.3413 4.45528 21.3413C5.63689 21.3413 6.77011 21.8107 7.60563 22.6462C8.44116 23.4818 8.91055 24.615 8.91055 25.7966Z" fill="#1AABB0"/>
<path d="M260.93 101.386C260.93 102.079 260.655 102.744 260.165 103.234C259.674 103.725 259.01 104 258.316 104C257.623 104 256.958 103.725 256.468 103.234C255.978 102.744 255.702 102.079 255.702 101.386C255.702 100.693 255.978 100.028 256.468 99.5375C256.958 99.0472 257.623 98.7718 258.316 98.7718C259.01 98.7718 259.674 99.0472 260.165 99.5375C260.655 100.028 260.93 100.693 260.93 101.386Z" fill="#1AABB0"/>
<path d="M137.687 29.1597C137.687 30.6343 137.101 32.0485 136.058 33.0912C135.016 34.1339 133.602 34.7197 132.127 34.7197C130.652 34.7197 129.238 34.1339 128.196 33.0912C127.153 32.0485 126.567 30.6343 126.567 29.1597C126.567 27.6851 127.153 26.2709 128.196 25.2282C129.238 24.1855 130.652 23.5997 132.127 23.5997C133.602 23.5997 135.016 24.1855 136.058 25.2282C137.101 26.2709 137.687 27.6851 137.687 29.1597Z" fill="#1AABB0"/>
<path d="M352.799 25.4763C352.799 26.3454 352.454 27.1789 351.839 27.7935C351.225 28.408 350.391 28.7533 349.522 28.7533C348.653 28.7533 347.819 28.408 347.205 27.7935C346.59 27.1789 346.245 26.3454 346.245 25.4763C346.245 24.6072 346.59 23.7737 347.205 23.1592C347.819 22.5446 348.653 22.1994 349.522 22.1994C350.391 22.1994 351.225 22.5446 351.839 23.1592C352.454 23.7737 352.799 24.6072 352.799 25.4763Z" fill="#1AABB0"/>
<path d="M93.3446 75.1218C93.3446 75.8634 93.1985 76.5977 92.9147 77.2828C92.6309 77.968 92.215 78.5905 91.6906 79.1149C91.1662 79.6393 90.5437 80.0552 89.8586 80.339C89.1734 80.6228 88.4391 80.7689 87.6975 80.7689C86.9559 80.7689 86.2216 80.6228 85.5365 80.339C84.8514 80.0552 84.2288 79.6393 83.7044 79.1149C83.1801 78.5905 82.7641 77.968 82.4803 77.2828C82.1965 76.5977 82.0505 75.8634 82.0505 75.1218C82.0505 74.3802 82.1965 73.6459 82.4803 72.9608C82.7641 72.2756 83.1801 71.6531 83.7044 71.1287C84.2288 70.6043 84.8514 70.1884 85.5365 69.9046C86.2216 69.6208 86.9559 69.4747 87.6975 69.4747C88.4391 69.4747 89.1734 69.6208 89.8586 69.9046C90.5437 70.1884 91.1662 70.6043 91.6906 71.1287C92.215 71.6531 92.6309 72.2756 92.9147 72.9608C93.1985 73.6459 93.3446 74.3802 93.3446 75.1218Z" fill="#1AABB0"/>
</svg>
