<svg width="23" height="11" viewBox="0 0 23 11" fill="none" xmlns="http://www.w3.org/2000/svg">
<path fill-rule="evenodd" clip-rule="evenodd" d="M22.9825 0.159726C23.0271 0.0531815 22.9825 0 22.8936 0H21.5594C21.4703 0 21.3815 -1.07819e-07 21.3369 0.159726C21.2034 0.478996 19.3356 3.88551 18.9796 4.52405C18.8907 4.6306 18.8463 4.6306 18.8463 4.47087C18.8017 4.09824 18.4905 3.6726 18.0456 3.4597C17.7342 3.29997 17.3786 3.24679 17.0672 3.29997C16.4444 3.40633 15.8664 3.77897 15.4216 4.25796C14.6655 4.89669 14.0428 5.74813 13.2422 6.38704C12.7976 6.75949 12.1748 7.02558 11.7745 6.59994C11.4187 6.17413 11.4187 5.26932 11.997 4.57742C12.0415 4.52405 12.1305 4.57741 12.1305 4.6306C12.0861 4.95005 12.1305 5.26914 12.3529 5.48223C12.5754 5.74831 12.931 5.80168 13.2424 5.58859C13.5982 5.37568 13.8206 5.00323 13.865 4.52405C13.954 3.77897 13.5092 3.19361 12.931 3.14025C12.4419 3.08706 11.997 3.29997 11.5523 3.72579C11.33 3.93869 11.1965 4.09842 11.0186 4.41769C10.9742 4.47087 10.9297 4.52405 10.9297 4.36433C10.9297 3.4597 10.6184 2.92734 9.99575 2.92734C9.50647 2.92734 8.97274 3.24661 8.57249 3.61924C8.08335 4.04506 7.72738 4.6306 7.28269 5.16277C7.23825 5.21596 7.19381 5.21596 7.19381 5.10959C7.14937 4.47087 7.0159 3.88533 6.79355 3.5127C6.70467 3.35315 6.52677 3.24661 6.3933 3.35315C6.34886 3.40634 6.08192 3.56606 5.90401 3.72579C5.81513 3.77897 5.81513 3.93869 5.85957 4.09842C6.08192 5.00323 6.03748 6.0144 5.7261 6.86603C5.41472 7.66448 4.88115 8.40956 4.21395 8.67565C3.8137 8.83538 3.36885 8.72884 3.10206 8.30302C2.70181 7.66448 2.87972 6.59994 3.41344 5.69513C3.90273 4.89687 4.61421 4.36451 5.32585 4.04524C5.41488 3.99187 5.45931 3.93869 5.41487 3.88551C5.37043 3.72579 5.32584 3.51288 5.28141 3.4597C5.23697 3.24679 5.05906 3.19361 4.83671 3.24679C4.30298 3.29997 3.85829 3.51288 3.369 3.83233C2.16823 4.57741 1.54563 6.06758 1.27869 6.91903C1.18981 7.29185 1.05634 7.50457 0.922871 7.71748C0.744963 8.03693 0.478177 8.30284 0.0333295 8.72865C-0.0111098 8.78202 -0.0111098 8.88838 0.0333295 8.94174C0.0777689 9.04811 0.300268 9.47392 0.344707 9.47392C0.433586 9.5271 0.522616 9.47392 0.522616 9.42056C0.833994 9.20765 1.18981 8.78202 1.41216 8.51575C1.4566 8.46256 1.50119 8.46257 1.54563 8.62229C1.72354 9.31419 2.16823 9.89973 2.7464 10.1658C3.85829 10.5916 5.01462 9.95274 5.90416 8.8352C6.43789 8.09011 6.66023 7.6643 6.83814 7.34503C7.19396 6.81285 7.9056 5.58859 8.75055 4.8435C9.06193 4.57742 9.41774 4.36451 9.64009 4.47087C9.77356 4.6306 9.818 4.89669 9.59565 5.37568C8.70611 7.29185 7.4609 9.47392 7.2384 10.0063C7.19396 10.1126 7.2384 10.166 7.28284 10.166H8.61708C8.66167 10.166 8.70611 10.1126 8.75055 10.0595C9.37315 8.8352 9.99591 7.66448 10.6629 6.44022C10.7074 6.38704 10.752 6.44022 10.752 6.44022C10.752 6.75949 10.8409 7.13212 10.9743 7.39821C11.1968 7.87721 11.5525 8.03693 11.9529 8.03693C12.2643 8.09011 12.442 7.98357 12.7979 7.87721C13.0648 7.71748 13.287 7.55776 13.465 7.45139C13.5539 7.34503 13.5539 7.50475 13.5539 7.50475C13.4205 8.46275 13.5985 9.63383 14.399 10.1126C15.3775 10.6982 16.4448 9.89973 17.0675 9.15465C17.1119 9.10147 17.201 9.10147 17.201 9.26119C17.201 9.52728 17.3343 9.84655 17.5124 10.1126C18.0459 10.6982 19.0689 10.4855 20.1362 9.4741C20.8034 8.88856 21.4705 7.98375 22.1377 7.07894C22.1377 7.02576 22.1821 6.97258 22.1377 6.91921C22.0042 6.81285 21.8707 6.65313 21.7819 6.54658C21.7374 6.4934 21.693 6.54658 21.6484 6.54658C20.9813 7.29185 20.4032 8.1433 19.5581 8.8352C19.2913 9.10147 18.802 9.26101 18.6241 8.94174C18.5352 8.8352 18.5352 8.62229 18.6241 8.40956C18.8907 7.6643 22.7601 0.532178 22.9825 0.159726ZM17.8234 6.12077C17.8234 6.17395 17.8679 6.22731 17.9569 6.22731V6.33367C17.779 6.75949 17.6455 6.97239 17.4232 7.34503C17.2453 7.71766 17.0229 7.98357 16.7561 8.19666C16.3559 8.62247 15.822 9.04811 15.3773 8.72865C15.155 8.62229 15.0659 8.30284 15.0659 8.03693C15.1105 7.23848 15.3773 6.44022 15.911 5.69513C16.5336 4.73714 17.2453 4.25815 17.7344 4.52405C18.1791 4.79032 18.0458 5.48223 17.8234 6.01422V6.12077Z" fill="white"/>
</svg>
