<svg width="42" height="26" viewBox="0 0 42 26" fill="none" xmlns="http://www.w3.org/2000/svg">
<g clip-path="url(#clip0_40_745)">
<path d="M0 18.332H10.1112V20.406H7.21052V25.3905H2.99723V20.406H0V18.332ZM15.232 21.1839L13.1032 25.3905H9.05696L13.0254 18.332H17.4197L21.4837 25.3905H17.3877L15.232 21.1839ZM20.5171 18.332H30.6279V20.406H27.7281V25.3905H23.515V20.406H20.5171V18.332ZM35.7505 21.1839L33.6209 25.3905H29.5747L33.5444 18.332H37.9374L42 25.3905H37.9055L35.7505 21.1839Z" fill="#486AAE"/>
<path fill-rule="evenodd" clip-rule="evenodd" d="M35.8996 5.36692C35.5221 4.86649 35.0249 4.38686 34.4063 3.93707C33.0163 2.92582 31.0552 2.08434 28.7343 1.50396C26.3943 0.91909 23.7253 0.609619 21.0131 0.609619C18.3009 0.609619 15.6319 0.91909 13.2931 1.50396C10.971 2.0844 9.00975 2.92589 7.61975 3.93707C7.00162 4.38679 6.50279 4.86709 6.12537 5.36779C9.14687 4.87528 14.3153 4.22501 19.1143 4.15626C19.5772 4.14956 19.8959 4.24949 20.1058 4.42878C20.3614 4.6471 20.3422 5.42534 20.336 5.77351L20.1995 14.7726C20.4698 14.7786 20.7413 14.7825 21.0131 14.7825C21.2871 14.7825 21.5602 14.7795 21.8304 14.7735L21.694 5.77344C21.6869 5.42534 21.6671 4.64703 21.9237 4.42871C22.134 4.24949 22.4517 4.14956 22.9145 4.1562C27.7115 4.22441 32.8787 4.87481 35.8996 5.36692Z" fill="#486AAE"/>
<path fill-rule="evenodd" clip-rule="evenodd" d="M36.5448 6.53714C32.1225 5.86327 29.1693 5.73865 26.2553 5.62966C23.7153 5.53448 23.6822 6.14584 23.9357 7.31418C23.9523 7.38547 23.9727 7.47535 23.9969 7.57784C24.8489 10.9792 25.9098 13.9062 26.0921 14.403C32.2844 13.4489 36.7501 10.8037 36.7501 7.69622C36.7501 7.30492 36.68 6.91724 36.5448 6.53714ZM18.0929 7.31418C18.3468 6.14591 18.3142 5.53448 15.7745 5.62966C12.8596 5.73865 9.90564 5.8632 5.48169 6.53755C5.34656 6.91764 5.27551 7.30485 5.27551 7.69615C5.27551 9.03921 6.08609 10.3388 7.61988 11.4553C9.00988 12.4666 10.9712 13.3081 13.2932 13.8889C14.1337 14.0986 15.0206 14.2705 15.9341 14.408C16.1056 13.9426 17.1909 10.9547 18.0521 7.49245C18.068 7.42612 18.0828 7.36488 18.0929 7.31418Z" fill="#486AAE"/>
</g>
<defs>
<clipPath id="clip0_40_745">
<rect width="42" height="26" fill="white"/>
</clipPath>
</defs>
</svg>
