<svg width="605" height="136" viewBox="0 0 605 136" fill="none" xmlns="http://www.w3.org/2000/svg">
<path d="M3.5 105.26L69.9444 118.54L136.389 3.5L202.833 58.38L269.278 119.02L335.722 6.22L402.167 132.3L468.611 85.9L535.056 106.06L601.5 123.82" stroke="#686F01"/>
<path d="M3.5 108.26C5.15685 108.26 6.5 106.917 6.5 105.26C6.5 103.603 5.15685 102.26 3.5 102.26C1.84315 102.26 0.5 103.603 0.5 105.26C0.5 106.917 1.84315 108.26 3.5 108.26Z" fill="white" stroke="#686F01"/>
<path d="M69.9445 121.54C71.6013 121.54 72.9445 120.197 72.9445 118.54C72.9445 116.883 71.6013 115.54 69.9445 115.54C68.2876 115.54 66.9445 116.883 66.9445 118.54C66.9445 120.197 68.2876 121.54 69.9445 121.54Z" fill="white" stroke="#686F01"/>
<path d="M136.389 6.5C138.046 6.5 139.389 5.15685 139.389 3.5C139.389 1.84315 138.046 0.5 136.389 0.5C134.732 0.5 133.389 1.84315 133.389 3.5C133.389 5.15685 134.732 6.5 136.389 6.5Z" fill="white" stroke="#686F01"/>
<path d="M202.833 61.3799C204.49 61.3799 205.833 60.0367 205.833 58.3799C205.833 56.723 204.49 55.3799 202.833 55.3799C201.176 55.3799 199.833 56.723 199.833 58.3799C199.833 60.0367 201.176 61.3799 202.833 61.3799Z" fill="white" stroke="#686F01"/>
<path d="M269.278 122.02C270.935 122.02 272.278 120.677 272.278 119.02C272.278 117.363 270.935 116.02 269.278 116.02C267.621 116.02 266.278 117.363 266.278 119.02C266.278 120.677 267.621 122.02 269.278 122.02Z" fill="white" stroke="#686F01"/>
<path d="M335.722 9.21997C337.379 9.21997 338.722 7.87682 338.722 6.21997C338.722 4.56312 337.379 3.21997 335.722 3.21997C334.065 3.21997 332.722 4.56312 332.722 6.21997C332.722 7.87682 334.065 9.21997 335.722 9.21997Z" fill="white" stroke="#686F01"/>
<path d="M402.167 135.3C403.824 135.3 405.167 133.957 405.167 132.3C405.167 130.643 403.824 129.3 402.167 129.3C400.51 129.3 399.167 130.643 399.167 132.3C399.167 133.957 400.51 135.3 402.167 135.3Z" fill="white" stroke="#686F01"/>
<path d="M468.611 88.8999C470.268 88.8999 471.611 87.5568 471.611 85.8999C471.611 84.243 470.268 82.8999 468.611 82.8999C466.954 82.8999 465.611 84.243 465.611 85.8999C465.611 87.5568 466.954 88.8999 468.611 88.8999Z" fill="white" stroke="#686F01"/>
<path d="M535.056 109.06C536.712 109.06 538.056 107.717 538.056 106.06C538.056 104.403 536.712 103.06 535.056 103.06C533.399 103.06 532.056 104.403 532.056 106.06C532.056 107.717 533.399 109.06 535.056 109.06Z" fill="white" stroke="#686F01"/>
<path d="M601.5 126.82C603.157 126.82 604.5 125.477 604.5 123.82C604.5 122.163 603.157 120.82 601.5 120.82C599.843 120.82 598.5 122.163 598.5 123.82C598.5 125.477 599.843 126.82 601.5 126.82Z" fill="white" stroke="#686F01"/>
</svg>
