<svg width="23" height="15" viewBox="0 0 23 15" fill="none" xmlns="http://www.w3.org/2000/svg">
<path fill-rule="evenodd" clip-rule="evenodd" d="M2.8622 14.2446C1.41751 14.2446 0.191824 13.1968 0.0167053 11.363C-0.0709285 10.3152 0.191824 9.42455 0.67329 8.69114C1.11101 8.01027 1.81149 7.43373 2.42448 7.32904C2.64334 7.27669 2.90609 7.32904 2.99358 7.48626C3.1687 7.69583 3.12495 7.95774 2.94983 8.06261C2.46822 8.37688 1.94286 8.84836 1.63652 9.52942C1.41751 10.0533 1.37376 10.7345 1.724 11.3107C2.2931 12.3585 3.91277 12.4109 5.4012 10.7345C5.75144 10.3153 6.10168 9.94873 6.45191 9.47707C7.10865 8.58645 7.32751 8.27201 8.15936 6.8052C8.2031 6.8052 8.2031 6.75286 8.2031 6.75286H8.15936C7.54652 6.75286 7.0649 6.96242 6.53955 7.43391C6.40817 7.53878 6.18931 7.53878 6.10183 7.32921C6.01419 7.17217 6.10183 6.91008 6.27694 6.80538C7.0649 6.12433 7.9405 6.01945 8.8161 5.81006C8.8161 5.81006 8.85984 5.81006 8.90358 5.75771C9.29756 5.18153 9.56031 4.70987 9.95429 4.13369C10.3483 3.55733 10.8299 3.0335 11.2239 2.61436C11.7491 2.09053 12.0995 1.88078 12.4496 1.67139C12.5372 1.61904 12.4496 1.51417 12.4058 1.51417C10.4795 1.09503 8.42211 0.518851 6.49581 1.40947C5.13875 1.98565 4.5259 3.24307 4.83225 4.13369C5.00737 4.70987 5.70785 4.81474 6.32069 4.44795C6.84604 4.13369 7.32751 3.6622 7.634 3.0335C7.85301 2.66671 8.24699 2.9288 8.02799 3.55733C7.45889 5.12901 6.36443 6.43877 5.05111 6.49129C3.91291 6.49129 3.21244 5.54832 3.21244 4.29091C3.21244 1.88096 5.44509 0.309282 7.80912 0.0473659C10.6546 -0.214551 13.3251 0.676073 16.1706 1.09521C18.3158 1.40965 20.4171 1.40965 22.5623 0.833294C22.8249 0.728598 23 0.937989 23 1.25243C23 1.72392 22.6933 2.14305 21.993 2.61454C21.1612 3.13837 20.3293 3.29559 19.4103 3.29559C17.2651 3.34794 15.2513 2.30028 13.1938 1.77626C13.1938 1.88096 13.1938 2.03818 13.15 2.09071C11.9681 3.08602 10.9611 4.13387 10.2606 5.60085C10.2169 5.60085 10.2606 5.6532 10.3044 5.6532C10.8735 5.60085 11.4426 5.60085 12.0117 5.5485C12.0993 5.5485 12.0993 5.49615 12.0993 5.39128C12.0556 4.9198 12.1431 4.34344 12.537 3.9243C12.8873 3.55751 13.3687 3.50516 13.6752 3.76708C14.0255 4.13387 14.0255 4.71005 13.8065 5.18171C13.6313 5.60085 13.2813 5.86277 12.9748 5.96764C12.9748 5.96764 12.931 5.96764 12.931 6.07234C12.931 6.17703 13.3687 6.43912 13.4125 6.54382C13.4125 6.59617 13.4125 6.70104 13.3687 6.80574C13.2813 6.85808 13.2375 6.91043 13.1499 6.91043C13.0622 6.91043 13.0185 6.85808 12.931 6.80574C12.7559 6.70104 12.4933 6.49147 12.3619 6.22938C12.2744 6.17703 12.2744 6.17703 12.1431 6.17703C11.5302 6.22938 10.567 6.33425 9.9104 6.43895C9.77903 6.43895 9.73528 6.49129 9.69139 6.54364C8.68457 8.58698 7.59011 10.7872 6.36443 12.254C5.09486 13.8253 4.0004 14.1921 2.8622 14.2446ZM12.6684 5.2337C12.6684 5.3384 12.7122 5.3384 12.7559 5.3384C12.931 5.28605 13.1499 5.07648 13.2813 4.86691C13.4125 4.65734 13.4564 4.39543 13.325 4.23821C13.2375 4.13351 13.0622 4.18586 12.931 4.29056C12.7122 4.55247 12.6245 4.91926 12.6684 5.2337Z" fill="white"/>
</svg>
