<svg width="14" height="9" viewBox="0 0 14 9" fill="none" xmlns="http://www.w3.org/2000/svg">
<path fill-rule="evenodd" clip-rule="evenodd" d="M10.5743 0.872786C11.258 0.763595 11.8506 0.709092 12.4431 0.654589C12.6254 0.600086 12.7622 0.600086 12.8078 0.654589C13.0356 0.927288 13.2635 1.14548 13.4458 1.30918C13.5369 1.30918 13.6282 1.30918 13.7194 1.36368C13.7649 1.36368 13.856 1.30918 13.9017 1.30918C13.9473 1.20017 13.9473 1.09098 13.9473 0.981976C13.9473 0.818282 13.9017 0.491081 13.8562 0.38189C13.8562 0.436392 13.8562 0.545583 13.8106 0.654589C13.7195 0.709092 13.674 0.763594 13.5828 0.763594C13.4915 0.763594 13.446 0.709092 13.3549 0.654589C13.1726 0.545583 12.8991 0.327387 12.7624 0.0545025C12.6713 -2.37569e-07 12.6713 0 12.5345 0C11.8964 0.0545028 10.8935 0.163694 10.2099 0.272699C10.0731 0.272699 10.0276 0.327202 9.98189 0.381704C8.93362 2.50917 7.79411 4.79995 6.51797 6.32714C5.19613 7.96352 4.05661 8.34541 2.87156 8.4001C1.50417 8.4001 0.27357 7.47281 0 5.83643C0.13663 6.76372 0.638072 7.8547 1.18506 8.34541C1.77759 8.7818 2.37011 8.9455 3.00834 9C4.37573 9 5.60632 8.34541 6.92817 6.76372C8.15877 5.23634 9.25274 3.10907 10.301 0.981791C10.3466 0.927288 10.3921 0.872786 10.5743 0.872786Z" fill="#000C3E"/>
</svg>
