<svg width="10" height="7" viewBox="0 0 10 7" fill="none" xmlns="http://www.w3.org/2000/svg">
<path fill-rule="evenodd" clip-rule="evenodd" d="M9.17439 1.06666C9.44818 0.7934 9.76758 0.629668 9.95031 0.684246C10.0415 0.356409 9.99592 0.138097 9.90455 0.028756C9.67637 -0.0805849 9.31121 0.138098 8.99166 0.411172C8.12452 1.17582 7.39421 2.43221 7.02905 2.97836C6.84647 3.3062 6.61829 3.743 6.07055 4.50765C5.15766 5.65471 3.97097 6.3102 2.82989 5.8732C2.23655 5.59994 1.78003 4.99922 1.5976 4.28915C1.552 4.12524 1.50639 4.12523 1.46063 4.17981C1.23245 4.45307 0.867289 4.88988 0.547737 5.10837C0.547737 5.16314 0.456525 5.21772 0.365158 5.16314C0.319552 5.16314 0.0912128 4.72615 0.0456069 4.61699H0C0.0912118 5.10837 0.0912108 5.16314 0.228184 5.38163C0.365157 5.60013 0.456369 5.76405 0.50213 5.81863C0.547736 5.81863 0.639104 5.81863 0.68471 5.76405C0.912894 5.65471 1.41502 5.2179 1.5976 4.89006C1.64321 4.83549 1.73458 4.83549 1.73458 4.94483C1.82579 5.27248 1.96276 5.49079 2.09973 5.76405C2.23671 6.09189 2.5561 6.36477 2.96702 6.52869C3.469 6.69261 4.01689 6.69261 4.74705 6.36477C5.34039 6.0917 5.97934 5.54555 6.43586 4.94483C6.9836 4.23476 7.21179 3.74301 7.43997 3.41535C7.80497 2.86902 8.35271 1.88588 9.17439 1.06666Z" fill="#000C3E"/>
</svg>
