<svg width="9" height="4" viewBox="0 0 9 4" fill="none" xmlns="http://www.w3.org/2000/svg">
<path fill-rule="evenodd" clip-rule="evenodd" d="M8.53629 0V0.0528873C7.87278 0.952695 7.20943 1.8525 6.54592 2.43481C5.48437 3.44057 4.46716 3.6523 3.93654 3.06982C3.75947 2.8052 3.62688 2.48769 3.62688 2.22308C3.62688 2.06423 3.53835 2.06423 3.49415 2.11712C2.87484 2.85809 1.81329 3.65212 0.840431 3.06982C0.35385 2.8052 0.0885376 2.22308 0 1.64077C0.0443439 2.06423 0.132731 2.69942 0.309656 3.06982C0.442387 3.33461 0.663506 3.65212 0.840431 3.70501C1.68086 4.23424 2.91919 3.65212 3.71527 2.75213V2.69924C3.75947 2.85809 3.80381 3.06982 3.80381 3.1227C3.84015 3.30245 3.91657 3.46702 4.02493 3.59887C4.5557 4.33984 5.70579 4.02233 6.89992 2.91079C7.56327 2.27578 8.04971 1.64041 8.66902 0.84656V0.63483C8.62467 0.476347 8.58048 0.158663 8.53629 0Z" fill="#000C3E"/>
</svg>
