<svg width="256" height="146" viewBox="0 0 256 146" fill="none" xmlns="http://www.w3.org/2000/svg">
<path d="M15.4323 86.2572C15.4323 86.5953 15.298 86.9196 15.0589 87.1587C14.8198 87.3978 14.4955 87.5322 14.1574 87.5322C13.8192 87.5322 13.495 87.3978 13.2559 87.1587C13.0168 86.9196 12.8824 86.5953 12.8824 86.2572C12.8824 85.9191 13.0168 85.5948 13.2559 85.3557C13.495 85.1166 13.8192 84.9822 14.1574 84.9822C14.4955 84.9822 14.8198 85.1166 15.0589 85.3557C15.298 85.5948 15.4323 85.9191 15.4323 86.2572Z" fill="#45E7FC"/>
<path d="M29.1342 87.6979C29.1342 88.8692 28.6689 89.9926 27.8406 90.8209C27.0124 91.6491 25.889 92.1145 24.7176 92.1145C23.5463 92.1145 22.4229 91.6491 21.5946 90.8209C20.7664 89.9926 20.301 88.8692 20.301 87.6979C20.301 86.5265 20.7664 85.4031 21.5946 84.5749C22.4229 83.7466 23.5463 83.2813 24.7176 83.2813C25.889 83.2813 27.0124 83.7466 27.8406 84.5749C28.6689 85.4031 29.1342 86.5265 29.1342 87.6979Z" fill="#45E7FC"/>
<path d="M179.511 96.502C179.511 97.6536 179.054 98.7581 178.239 99.5725C177.425 100.387 176.32 100.844 175.169 100.844C174.017 100.844 172.913 100.387 172.098 99.5725C171.284 98.7581 170.826 97.6536 170.826 96.502C170.826 95.3503 171.284 94.2458 172.098 93.4315C172.913 92.6171 174.017 92.1596 175.169 92.1596C176.32 92.1596 177.425 92.6171 178.239 93.4315C179.054 94.2458 179.511 95.3503 179.511 96.502Z" fill="#45E7FC"/>
<path d="M233.969 69.6095C233.969 70.089 233.875 70.5637 233.691 71.0067C233.508 71.4496 233.239 71.8521 232.9 72.1911C232.561 72.5301 232.158 72.7991 231.715 72.9825C231.273 73.166 230.798 73.2605 230.318 73.2605C229.839 73.2605 229.364 73.166 228.921 72.9825C228.478 72.7991 228.076 72.5301 227.737 72.1911C227.398 71.8521 227.129 71.4496 226.945 71.0067C226.762 70.5637 226.667 70.089 226.667 69.6095C226.667 69.1301 226.762 68.6553 226.945 68.2124C227.129 67.7694 227.398 67.3669 227.737 67.0279C228.076 66.6889 228.478 66.42 228.921 66.2365C229.364 66.053 229.839 65.9586 230.318 65.9586C230.798 65.9586 231.273 66.053 231.715 66.2365C232.158 66.42 232.561 66.6889 232.9 67.0279C233.239 67.3669 233.508 67.7694 233.691 68.2124C233.875 68.6553 233.969 69.1301 233.969 69.6095Z" fill="#45E7FC"/>
<path d="M33.2365 141.483C33.2365 142.552 32.8117 143.577 32.0556 144.334C31.2995 145.09 30.274 145.514 29.2047 145.514C28.1354 145.514 27.1099 145.09 26.3538 144.334C25.5977 143.577 25.1729 142.552 25.1729 141.483C25.1729 140.413 25.5977 139.388 26.3538 138.632C27.1099 137.876 28.1354 137.451 29.2047 137.451C30.274 137.451 31.2995 137.876 32.0556 138.632C32.8117 139.388 33.2365 140.413 33.2365 141.483Z" fill="#45E7FC"/>
<path d="M211.399 14.5442C211.399 16.0259 210.81 17.4468 209.763 18.4945C208.715 19.5422 207.294 20.1308 205.812 20.1308C204.331 20.1308 202.91 19.5422 201.862 18.4945C200.814 17.4468 200.226 16.0259 200.226 14.5442C200.226 13.0626 200.814 11.6416 201.862 10.5939C202.91 9.5462 204.331 8.95762 205.812 8.95762C207.294 8.95762 208.715 9.5462 209.763 10.5939C210.81 11.6416 211.399 13.0626 211.399 14.5442Z" fill="#45E7FC"/>
<path d="M256 37.4347C256 38.0611 255.877 38.6815 255.637 39.2603C255.397 39.839 255.046 40.3649 254.603 40.8079C254.16 41.2509 253.634 41.6023 253.055 41.842C252.476 42.0818 251.856 42.2051 251.23 42.2051C250.603 42.2051 249.983 42.0818 249.404 41.842C248.825 41.6023 248.299 41.2509 247.856 40.8079C247.413 40.3649 247.062 39.839 246.822 39.2603C246.582 38.6815 246.459 38.0611 246.459 37.4347C246.459 36.8082 246.582 36.1879 246.822 35.6091C247.062 35.0303 247.413 34.5044 247.856 34.0614C248.299 33.6185 248.825 33.2671 249.404 33.0273C249.983 32.7876 250.603 32.6642 251.23 32.6642C251.856 32.6642 252.476 32.7876 253.055 33.0273C253.634 33.2671 254.16 33.6185 254.603 34.0614C255.046 34.5044 255.397 35.0303 255.637 35.6091C255.877 36.1879 256 36.8082 256 37.4347Z" fill="#45E7FC"/>
<path d="M10.1997 5.09985C10.1997 6.45241 9.66239 7.74957 8.70598 8.70598C7.74957 9.66239 6.45241 10.1997 5.09985 10.1997C3.74728 10.1997 2.45012 9.66239 1.49371 8.70598C0.537304 7.74957 0 6.45241 0 5.09985C0 3.74728 0.537304 2.45012 1.49371 1.49371C2.45012 0.537304 3.74728 0 5.09985 0C6.45241 0 7.74957 0.537304 8.70598 1.49371C9.66239 2.45012 10.1997 3.74728 10.1997 5.09985Z" fill="#45E7FC"/>
<path d="M209.528 6.86062C209.528 7.91917 209.107 8.93436 208.359 9.68287C207.61 10.4314 206.595 10.8519 205.536 10.8519C204.478 10.8519 203.463 10.4314 202.714 9.68287C201.966 8.93436 201.545 7.91917 201.545 6.86062C201.545 5.80208 201.966 4.78688 202.714 4.03838C203.463 3.28987 204.478 2.86936 205.536 2.86936C206.595 2.86936 207.61 3.28987 208.359 4.03838C209.107 4.78688 209.528 5.80208 209.528 6.86062Z" fill="#45E7FC"/>
</svg>
